<?xml version="1.0" encoding="utf-8"?>
<svg xmlns="http://www.w3.org/2000/svg" xmlns:xlink="http://www.w3.org/1999/xlink" width="600" height="400" viewBox="0 0 2400 1600">
<defs>
  <clipPath id="clip890">
    <rect x="0" y="0" width="2400" height="1600"/>
  </clipPath>
</defs>
<path clip-path="url(#clip890)" d="
M0 1600 L2400 1600 L2400 0 L0 0  Z
  " fill="#ffffff" fill-rule="evenodd" fill-opacity="1"/>
<defs>
  <clipPath id="clip891">
    <rect x="480" y="0" width="1681" height="1600"/>
  </clipPath>
</defs>
<path clip-path="url(#clip890)" d="
M156.274 1486.45 L2352.76 1486.45 L2352.76 47.2441 L156.274 47.2441  Z
  " fill="#ffffff" fill-rule="evenodd" fill-opacity="1"/>
<defs>
  <clipPath id="clip892">
    <rect x="156" y="47" width="2197" height="1440"/>
  </clipPath>
</defs>
<polyline clip-path="url(#clip892)" style="stroke:#000000; stroke-width:2; stroke-opacity:0.1; fill:none" points="
  218.439,1486.45 218.439,47.2441 
  "/>
<polyline clip-path="url(#clip892)" style="stroke:#000000; stroke-width:2; stroke-opacity:0.1; fill:none" points="
  736.477,1486.45 736.477,47.2441 
  "/>
<polyline clip-path="url(#clip892)" style="stroke:#000000; stroke-width:2; stroke-opacity:0.1; fill:none" points="
  1254.52,1486.45 1254.52,47.2441 
  "/>
<polyline clip-path="url(#clip892)" style="stroke:#000000; stroke-width:2; stroke-opacity:0.1; fill:none" points="
  1772.55,1486.45 1772.55,47.2441 
  "/>
<polyline clip-path="url(#clip892)" style="stroke:#000000; stroke-width:2; stroke-opacity:0.1; fill:none" points="
  2290.59,1486.45 2290.59,47.2441 
  "/>
<polyline clip-path="url(#clip890)" style="stroke:#000000; stroke-width:4; stroke-opacity:1; fill:none" points="
  156.274,1486.45 2352.76,1486.45 
  "/>
<polyline clip-path="url(#clip890)" style="stroke:#000000; stroke-width:4; stroke-opacity:1; fill:none" points="
  218.439,1486.45 218.439,1469.18 
  "/>
<polyline clip-path="url(#clip890)" style="stroke:#000000; stroke-width:4; stroke-opacity:1; fill:none" points="
  736.477,1486.45 736.477,1469.18 
  "/>
<polyline clip-path="url(#clip890)" style="stroke:#000000; stroke-width:4; stroke-opacity:1; fill:none" points="
  1254.52,1486.45 1254.52,1469.18 
  "/>
<polyline clip-path="url(#clip890)" style="stroke:#000000; stroke-width:4; stroke-opacity:1; fill:none" points="
  1772.55,1486.45 1772.55,1469.18 
  "/>
<polyline clip-path="url(#clip890)" style="stroke:#000000; stroke-width:4; stroke-opacity:1; fill:none" points="
  2290.59,1486.45 2290.59,1469.18 
  "/>
<path clip-path="url(#clip890)" d="M 0 0 M164.967 1530.29 L194.643 1530.29 L194.643 1534.23 L164.967 1534.23 L164.967 1530.29 Z" fill="#000000" fill-rule="evenodd" fill-opacity="1" /><path clip-path="url(#clip890)" d="M 0 0 M205.545 1543.18 L213.184 1543.18 L213.184 1516.82 L204.874 1518.49 L204.874 1514.23 L213.138 1512.56 L217.814 1512.56 L217.814 1543.18 L225.453 1543.18 L225.453 1547.12 L205.545 1547.12 L205.545 1543.18 Z" fill="#000000" fill-rule="evenodd" fill-opacity="1" /><path clip-path="url(#clip890)" d="M 0 0 M234.897 1541.24 L239.781 1541.24 L239.781 1547.12 L234.897 1547.12 L234.897 1541.24 Z" fill="#000000" fill-rule="evenodd" fill-opacity="1" /><path clip-path="url(#clip890)" d="M 0 0 M259.966 1515.64 Q256.355 1515.64 254.527 1519.2 Q252.721 1522.75 252.721 1529.87 Q252.721 1536.98 254.527 1540.55 Q256.355 1544.09 259.966 1544.09 Q263.601 1544.09 265.406 1540.55 Q267.235 1536.98 267.235 1529.87 Q267.235 1522.75 265.406 1519.2 Q263.601 1515.64 259.966 1515.64 M259.966 1511.93 Q265.776 1511.93 268.832 1516.54 Q271.911 1521.12 271.911 1529.87 Q271.911 1538.6 268.832 1543.21 Q265.776 1547.79 259.966 1547.79 Q254.156 1547.79 251.077 1543.21 Q248.022 1538.6 248.022 1529.87 Q248.022 1521.12 251.077 1516.54 Q254.156 1511.93 259.966 1511.93 Z" fill="#000000" fill-rule="evenodd" fill-opacity="1" /><path clip-path="url(#clip890)" d="M 0 0 M683.503 1530.29 L713.178 1530.29 L713.178 1534.23 L683.503 1534.23 L683.503 1530.29 Z" fill="#000000" fill-rule="evenodd" fill-opacity="1" /><path clip-path="url(#clip890)" d="M 0 0 M733.271 1515.64 Q729.66 1515.64 727.831 1519.2 Q726.026 1522.75 726.026 1529.87 Q726.026 1536.98 727.831 1540.55 Q729.66 1544.09 733.271 1544.09 Q736.905 1544.09 738.711 1540.55 Q740.539 1536.98 740.539 1529.87 Q740.539 1522.75 738.711 1519.2 Q736.905 1515.64 733.271 1515.64 M733.271 1511.93 Q739.081 1511.93 742.137 1516.54 Q745.215 1521.12 745.215 1529.87 Q745.215 1538.6 742.137 1543.21 Q739.081 1547.79 733.271 1547.79 Q727.461 1547.79 724.382 1543.21 Q721.327 1538.6 721.327 1529.87 Q721.327 1521.12 724.382 1516.54 Q727.461 1511.93 733.271 1511.93 Z" fill="#000000" fill-rule="evenodd" fill-opacity="1" /><path clip-path="url(#clip890)" d="M 0 0 M753.433 1541.24 L758.317 1541.24 L758.317 1547.12 L753.433 1547.12 L753.433 1541.24 Z" fill="#000000" fill-rule="evenodd" fill-opacity="1" /><path clip-path="url(#clip890)" d="M 0 0 M768.548 1512.56 L786.905 1512.56 L786.905 1516.5 L772.831 1516.5 L772.831 1524.97 Q773.849 1524.62 774.868 1524.46 Q775.886 1524.27 776.905 1524.27 Q782.692 1524.27 786.072 1527.44 Q789.451 1530.62 789.451 1536.03 Q789.451 1541.61 785.979 1544.71 Q782.507 1547.79 776.187 1547.79 Q774.011 1547.79 771.743 1547.42 Q769.498 1547.05 767.09 1546.31 L767.09 1541.61 Q769.173 1542.74 771.396 1543.3 Q773.618 1543.86 776.095 1543.86 Q780.099 1543.86 782.437 1541.75 Q784.775 1539.64 784.775 1536.03 Q784.775 1532.42 782.437 1530.31 Q780.099 1528.21 776.095 1528.21 Q774.22 1528.21 772.345 1528.62 Q770.493 1529.04 768.548 1529.92 L768.548 1512.56 Z" fill="#000000" fill-rule="evenodd" fill-opacity="1" /><path clip-path="url(#clip890)" d="M 0 0 M1231.9 1515.64 Q1228.29 1515.64 1226.46 1519.2 Q1224.65 1522.75 1224.65 1529.87 Q1224.65 1536.98 1226.46 1540.55 Q1228.29 1544.09 1231.9 1544.09 Q1235.53 1544.09 1237.34 1540.55 Q1239.17 1536.98 1239.17 1529.87 Q1239.17 1522.75 1237.34 1519.2 Q1235.53 1515.64 1231.9 1515.64 M1231.9 1511.93 Q1237.71 1511.93 1240.77 1516.54 Q1243.84 1521.12 1243.84 1529.87 Q1243.84 1538.6 1240.77 1543.21 Q1237.71 1547.79 1231.9 1547.79 Q1226.09 1547.79 1223.01 1543.21 Q1219.96 1538.6 1219.96 1529.87 Q1219.96 1521.12 1223.01 1516.54 Q1226.09 1511.93 1231.9 1511.93 Z" fill="#000000" fill-rule="evenodd" fill-opacity="1" /><path clip-path="url(#clip890)" d="M 0 0 M1252.06 1541.24 L1256.95 1541.24 L1256.95 1547.12 L1252.06 1547.12 L1252.06 1541.24 Z" fill="#000000" fill-rule="evenodd" fill-opacity="1" /><path clip-path="url(#clip890)" d="M 0 0 M1277.13 1515.64 Q1273.52 1515.64 1271.69 1519.2 Q1269.89 1522.75 1269.89 1529.87 Q1269.89 1536.98 1271.69 1540.55 Q1273.52 1544.09 1277.13 1544.09 Q1280.76 1544.09 1282.57 1540.55 Q1284.4 1536.98 1284.4 1529.87 Q1284.4 1522.75 1282.57 1519.2 Q1280.76 1515.64 1277.13 1515.64 M1277.13 1511.93 Q1282.94 1511.93 1286 1516.54 Q1289.08 1521.12 1289.08 1529.87 Q1289.08 1538.6 1286 1543.21 Q1282.94 1547.79 1277.13 1547.79 Q1271.32 1547.79 1268.24 1543.21 Q1265.19 1538.6 1265.19 1529.87 Q1265.19 1521.12 1268.24 1516.54 Q1271.32 1511.93 1277.13 1511.93 Z" fill="#000000" fill-rule="evenodd" fill-opacity="1" /><path clip-path="url(#clip890)" d="M 0 0 M1750.44 1515.64 Q1746.82 1515.64 1745 1519.2 Q1743.19 1522.75 1743.19 1529.87 Q1743.19 1536.98 1745 1540.55 Q1746.82 1544.09 1750.44 1544.09 Q1754.07 1544.09 1755.88 1540.55 Q1757.7 1536.98 1757.7 1529.87 Q1757.7 1522.75 1755.88 1519.2 Q1754.07 1515.64 1750.44 1515.64 M1750.44 1511.93 Q1756.25 1511.93 1759.3 1516.54 Q1762.38 1521.12 1762.38 1529.87 Q1762.38 1538.6 1759.3 1543.21 Q1756.25 1547.79 1750.44 1547.79 Q1744.63 1547.79 1741.55 1543.21 Q1738.49 1538.6 1738.49 1529.87 Q1738.49 1521.12 1741.55 1516.54 Q1744.63 1511.93 1750.44 1511.93 Z" fill="#000000" fill-rule="evenodd" fill-opacity="1" /><path clip-path="url(#clip890)" d="M 0 0 M1770.6 1541.24 L1775.48 1541.24 L1775.48 1547.12 L1770.6 1547.12 L1770.6 1541.24 Z" fill="#000000" fill-rule="evenodd" fill-opacity="1" /><path clip-path="url(#clip890)" d="M 0 0 M1785.71 1512.56 L1804.07 1512.56 L1804.07 1516.5 L1790 1516.5 L1790 1524.97 Q1791.01 1524.62 1792.03 1524.46 Q1793.05 1524.27 1794.07 1524.27 Q1799.86 1524.27 1803.24 1527.44 Q1806.62 1530.62 1806.62 1536.03 Q1806.62 1541.61 1803.14 1544.71 Q1799.67 1547.79 1793.35 1547.79 Q1791.18 1547.79 1788.91 1547.42 Q1786.66 1547.05 1784.25 1546.31 L1784.25 1541.61 Q1786.34 1542.74 1788.56 1543.3 Q1790.78 1543.86 1793.26 1543.86 Q1797.26 1543.86 1799.6 1541.75 Q1801.94 1539.64 1801.94 1536.03 Q1801.94 1532.42 1799.6 1530.31 Q1797.26 1528.21 1793.26 1528.21 Q1791.38 1528.21 1789.51 1528.62 Q1787.66 1529.04 1785.71 1529.92 L1785.71 1512.56 Z" fill="#000000" fill-rule="evenodd" fill-opacity="1" /><path clip-path="url(#clip890)" d="M 0 0 M2257.74 1543.18 L2265.38 1543.18 L2265.38 1516.82 L2257.07 1518.49 L2257.07 1514.23 L2265.34 1512.56 L2270.01 1512.56 L2270.01 1543.18 L2277.65 1543.18 L2277.65 1547.12 L2257.74 1547.12 L2257.74 1543.18 Z" fill="#000000" fill-rule="evenodd" fill-opacity="1" /><path clip-path="url(#clip890)" d="M 0 0 M2287.1 1541.24 L2291.98 1541.24 L2291.98 1547.12 L2287.1 1547.12 L2287.1 1541.24 Z" fill="#000000" fill-rule="evenodd" fill-opacity="1" /><path clip-path="url(#clip890)" d="M 0 0 M2312.17 1515.64 Q2308.55 1515.64 2306.73 1519.2 Q2304.92 1522.75 2304.92 1529.87 Q2304.92 1536.98 2306.73 1540.55 Q2308.55 1544.09 2312.17 1544.09 Q2315.8 1544.09 2317.61 1540.55 Q2319.43 1536.98 2319.43 1529.87 Q2319.43 1522.75 2317.61 1519.2 Q2315.8 1515.64 2312.17 1515.64 M2312.17 1511.93 Q2317.98 1511.93 2321.03 1516.54 Q2324.11 1521.12 2324.11 1529.87 Q2324.11 1538.6 2321.03 1543.21 Q2317.98 1547.79 2312.17 1547.79 Q2306.36 1547.79 2303.28 1543.21 Q2300.22 1538.6 2300.22 1529.87 Q2300.22 1521.12 2303.28 1516.54 Q2306.36 1511.93 2312.17 1511.93 Z" fill="#000000" fill-rule="evenodd" fill-opacity="1" /><polyline clip-path="url(#clip892)" style="stroke:#000000; stroke-width:2; stroke-opacity:0.1; fill:none" points="
  156.274,1269.4 2352.76,1269.4 
  "/>
<polyline clip-path="url(#clip892)" style="stroke:#000000; stroke-width:2; stroke-opacity:0.1; fill:none" points="
  156.274,974.041 2352.76,974.041 
  "/>
<polyline clip-path="url(#clip892)" style="stroke:#000000; stroke-width:2; stroke-opacity:0.1; fill:none" points="
  156.274,678.686 2352.76,678.686 
  "/>
<polyline clip-path="url(#clip892)" style="stroke:#000000; stroke-width:2; stroke-opacity:0.1; fill:none" points="
  156.274,383.331 2352.76,383.331 
  "/>
<polyline clip-path="url(#clip892)" style="stroke:#000000; stroke-width:2; stroke-opacity:0.1; fill:none" points="
  156.274,87.9763 2352.76,87.9763 
  "/>
<polyline clip-path="url(#clip890)" style="stroke:#000000; stroke-width:4; stroke-opacity:1; fill:none" points="
  156.274,1486.45 156.274,47.2441 
  "/>
<polyline clip-path="url(#clip890)" style="stroke:#000000; stroke-width:4; stroke-opacity:1; fill:none" points="
  156.274,1269.4 182.632,1269.4 
  "/>
<polyline clip-path="url(#clip890)" style="stroke:#000000; stroke-width:4; stroke-opacity:1; fill:none" points="
  156.274,974.041 182.632,974.041 
  "/>
<polyline clip-path="url(#clip890)" style="stroke:#000000; stroke-width:4; stroke-opacity:1; fill:none" points="
  156.274,678.686 182.632,678.686 
  "/>
<polyline clip-path="url(#clip890)" style="stroke:#000000; stroke-width:4; stroke-opacity:1; fill:none" points="
  156.274,383.331 182.632,383.331 
  "/>
<polyline clip-path="url(#clip890)" style="stroke:#000000; stroke-width:4; stroke-opacity:1; fill:none" points="
  156.274,87.9763 182.632,87.9763 
  "/>
<path clip-path="url(#clip890)" d="M 0 0 M62.9365 1255.19 Q59.3254 1255.19 57.4967 1258.76 Q55.6912 1262.3 55.6912 1269.43 Q55.6912 1276.54 57.4967 1280.1 Q59.3254 1283.64 62.9365 1283.64 Q66.5707 1283.64 68.3763 1280.1 Q70.205 1276.54 70.205 1269.43 Q70.205 1262.3 68.3763 1258.76 Q66.5707 1255.19 62.9365 1255.19 M62.9365 1251.49 Q68.7467 1251.49 71.8022 1256.1 Q74.8809 1260.68 74.8809 1269.43 Q74.8809 1278.16 71.8022 1282.76 Q68.7467 1287.35 62.9365 1287.35 Q57.1264 1287.35 54.0477 1282.76 Q50.9921 1278.16 50.9921 1269.43 Q50.9921 1260.68 54.0477 1256.1 Q57.1264 1251.49 62.9365 1251.49 Z" fill="#000000" fill-rule="evenodd" fill-opacity="1" /><path clip-path="url(#clip890)" d="M 0 0 M83.0984 1280.8 L87.9827 1280.8 L87.9827 1286.68 L83.0984 1286.68 L83.0984 1280.8 Z" fill="#000000" fill-rule="evenodd" fill-opacity="1" /><path clip-path="url(#clip890)" d="M 0 0 M108.746 1267.53 Q105.598 1267.53 103.746 1269.69 Q101.918 1271.84 101.918 1275.59 Q101.918 1279.31 103.746 1281.49 Q105.598 1283.64 108.746 1283.64 Q111.895 1283.64 113.723 1281.49 Q115.575 1279.31 115.575 1275.59 Q115.575 1271.84 113.723 1269.69 Q111.895 1267.53 108.746 1267.53 M118.029 1252.88 L118.029 1257.14 Q116.27 1256.31 114.464 1255.87 Q112.682 1255.43 110.922 1255.43 Q106.293 1255.43 103.839 1258.55 Q101.409 1261.68 101.061 1268 Q102.427 1265.98 104.487 1264.92 Q106.547 1263.83 109.024 1263.83 Q114.233 1263.83 117.242 1267 Q120.274 1270.15 120.274 1275.59 Q120.274 1280.91 117.126 1284.13 Q113.978 1287.35 108.746 1287.35 Q102.751 1287.35 99.5798 1282.76 Q96.4085 1278.16 96.4085 1269.43 Q96.4085 1261.24 100.297 1256.37 Q104.186 1251.49 110.737 1251.49 Q112.496 1251.49 114.279 1251.84 Q116.084 1252.19 118.029 1252.88 Z" fill="#000000" fill-rule="evenodd" fill-opacity="1" /><path clip-path="url(#clip890)" d="M 0 0 M64.0013 959.84 Q60.3902 959.84 58.5615 963.404 Q56.756 966.946 56.756 974.076 Q56.756 981.182 58.5615 984.747 Q60.3902 988.288 64.0013 988.288 Q67.6356 988.288 69.4411 984.747 Q71.2698 981.182 71.2698 974.076 Q71.2698 966.946 69.4411 963.404 Q67.6356 959.84 64.0013 959.84 M64.0013 956.136 Q69.8115 956.136 72.867 960.742 Q75.9457 965.326 75.9457 974.076 Q75.9457 982.802 72.867 987.409 Q69.8115 991.992 64.0013 991.992 Q58.1912 991.992 55.1125 987.409 Q52.0569 982.802 52.0569 974.076 Q52.0569 965.326 55.1125 960.742 Q58.1912 956.136 64.0013 956.136 Z" fill="#000000" fill-rule="evenodd" fill-opacity="1" /><path clip-path="url(#clip890)" d="M 0 0 M84.1632 985.441 L89.0475 985.441 L89.0475 991.321 L84.1632 991.321 L84.1632 985.441 Z" fill="#000000" fill-rule="evenodd" fill-opacity="1" /><path clip-path="url(#clip890)" d="M 0 0 M98.0521 956.761 L120.274 956.761 L120.274 958.752 L107.728 991.321 L102.844 991.321 L114.649 960.696 L98.0521 960.696 L98.0521 956.761 Z" fill="#000000" fill-rule="evenodd" fill-opacity="1" /><path clip-path="url(#clip890)" d="M 0 0 M63.1911 664.485 Q59.58 664.485 57.7513 668.049 Q55.9458 671.591 55.9458 678.721 Q55.9458 685.827 57.7513 689.392 Q59.58 692.934 63.1911 692.934 Q66.8254 692.934 68.6309 689.392 Q70.4596 685.827 70.4596 678.721 Q70.4596 671.591 68.6309 668.049 Q66.8254 664.485 63.1911 664.485 M63.1911 660.781 Q69.0013 660.781 72.0568 665.387 Q75.1355 669.971 75.1355 678.721 Q75.1355 687.447 72.0568 692.054 Q69.0013 696.637 63.1911 696.637 Q57.381 696.637 54.3023 692.054 Q51.2468 687.447 51.2468 678.721 Q51.2468 669.971 54.3023 665.387 Q57.381 660.781 63.1911 660.781 Z" fill="#000000" fill-rule="evenodd" fill-opacity="1" /><path clip-path="url(#clip890)" d="M 0 0 M83.3531 690.086 L88.2373 690.086 L88.2373 695.966 L83.3531 695.966 L83.3531 690.086 Z" fill="#000000" fill-rule="evenodd" fill-opacity="1" /><path clip-path="url(#clip890)" d="M 0 0 M108.422 679.554 Q105.089 679.554 103.168 681.336 Q101.27 683.119 101.27 686.244 Q101.27 689.369 103.168 691.151 Q105.089 692.934 108.422 692.934 Q111.756 692.934 113.677 691.151 Q115.598 689.346 115.598 686.244 Q115.598 683.119 113.677 681.336 Q111.779 679.554 108.422 679.554 M103.746 677.563 Q100.737 676.823 99.0474 674.762 Q97.3808 672.702 97.3808 669.739 Q97.3808 665.596 100.321 663.188 Q103.284 660.781 108.422 660.781 Q113.584 660.781 116.524 663.188 Q119.464 665.596 119.464 669.739 Q119.464 672.702 117.774 674.762 Q116.108 676.823 113.121 677.563 Q116.501 678.35 118.376 680.642 Q120.274 682.934 120.274 686.244 Q120.274 691.267 117.195 693.952 Q114.14 696.637 108.422 696.637 Q102.705 696.637 99.6261 693.952 Q96.5706 691.267 96.5706 686.244 Q96.5706 682.934 98.4687 680.642 Q100.367 678.35 103.746 677.563 M102.034 670.179 Q102.034 672.864 103.7 674.369 Q105.39 675.873 108.422 675.873 Q111.432 675.873 113.121 674.369 Q114.834 672.864 114.834 670.179 Q114.834 667.494 113.121 665.989 Q111.432 664.485 108.422 664.485 Q105.39 664.485 103.7 665.989 Q102.034 667.494 102.034 670.179 Z" fill="#000000" fill-rule="evenodd" fill-opacity="1" /><path clip-path="url(#clip890)" d="M 0 0 M63.2837 369.13 Q59.6726 369.13 57.8439 372.695 Q56.0384 376.236 56.0384 383.366 Q56.0384 390.472 57.8439 394.037 Q59.6726 397.579 63.2837 397.579 Q66.918 397.579 68.7235 394.037 Q70.5522 390.472 70.5522 383.366 Q70.5522 376.236 68.7235 372.695 Q66.918 369.13 63.2837 369.13 M63.2837 365.426 Q69.0939 365.426 72.1494 370.033 Q75.2281 374.616 75.2281 383.366 Q75.2281 392.093 72.1494 396.699 Q69.0939 401.282 63.2837 401.282 Q57.4736 401.282 54.3949 396.699 Q51.3393 392.093 51.3393 383.366 Q51.3393 374.616 54.3949 370.033 Q57.4736 365.426 63.2837 365.426 Z" fill="#000000" fill-rule="evenodd" fill-opacity="1" /><path clip-path="url(#clip890)" d="M 0 0 M83.4457 394.732 L88.3299 394.732 L88.3299 400.611 L83.4457 400.611 L83.4457 394.732 Z" fill="#000000" fill-rule="evenodd" fill-opacity="1" /><path clip-path="url(#clip890)" d="M 0 0 M98.6539 399.894 L98.6539 395.634 Q100.413 396.468 102.219 396.907 Q104.024 397.347 105.76 397.347 Q110.39 397.347 112.82 394.245 Q115.274 391.12 115.621 384.778 Q114.279 386.769 112.219 387.833 Q110.158 388.898 107.658 388.898 Q102.473 388.898 99.4409 385.773 Q96.4317 382.625 96.4317 377.185 Q96.4317 371.861 99.5798 368.644 Q102.728 365.426 107.959 365.426 Q113.955 365.426 117.103 370.033 Q120.274 374.616 120.274 383.366 Q120.274 391.537 116.385 396.421 Q112.52 401.282 105.969 401.282 Q104.209 401.282 102.404 400.935 Q100.598 400.588 98.6539 399.894 M107.959 385.241 Q111.108 385.241 112.936 383.088 Q114.788 380.935 114.788 377.185 Q114.788 373.458 112.936 371.306 Q111.108 369.13 107.959 369.13 Q104.811 369.13 102.959 371.306 Q101.131 373.458 101.131 377.185 Q101.131 380.935 102.959 383.088 Q104.811 385.241 107.959 385.241 Z" fill="#000000" fill-rule="evenodd" fill-opacity="1" /><path clip-path="url(#clip890)" d="M 0 0 M53.9088 101.321 L61.5476 101.321 L61.5476 74.9555 L53.2375 76.6222 L53.2375 72.3629 L61.5013 70.6963 L66.1772 70.6963 L66.1772 101.321 L73.8161 101.321 L73.8161 105.256 L53.9088 105.256 L53.9088 101.321 Z" fill="#000000" fill-rule="evenodd" fill-opacity="1" /><path clip-path="url(#clip890)" d="M 0 0 M83.2605 99.3767 L88.1447 99.3767 L88.1447 105.256 L83.2605 105.256 L83.2605 99.3767 Z" fill="#000000" fill-rule="evenodd" fill-opacity="1" /><path clip-path="url(#clip890)" d="M 0 0 M108.33 73.775 Q104.719 73.775 102.89 77.3398 Q101.084 80.8814 101.084 88.011 Q101.084 95.1174 102.89 98.6822 Q104.719 102.224 108.33 102.224 Q111.964 102.224 113.77 98.6822 Q115.598 95.1174 115.598 88.011 Q115.598 80.8814 113.77 77.3398 Q111.964 73.775 108.33 73.775 M108.33 70.0713 Q114.14 70.0713 117.195 74.6777 Q120.274 79.261 120.274 88.011 Q120.274 96.7378 117.195 101.344 Q114.14 105.928 108.33 105.928 Q102.52 105.928 99.4409 101.344 Q96.3854 96.7378 96.3854 88.011 Q96.3854 79.261 99.4409 74.6777 Q102.52 70.0713 108.33 70.0713 Z" fill="#000000" fill-rule="evenodd" fill-opacity="1" /><circle clip-path="url(#clip892)" cx="2286.17" cy="1435.13" r="14" fill="#009af9" fill-rule="evenodd" fill-opacity="1" stroke="#000000" stroke-opacity="1" stroke-width="3.2"/>
<circle clip-path="url(#clip892)" cx="2251.04" cy="1352.03" r="14" fill="#009af9" fill-rule="evenodd" fill-opacity="1" stroke="#000000" stroke-opacity="1" stroke-width="3.2"/>
<circle clip-path="url(#clip892)" cx="2181.97" cy="1194.4" r="14" fill="#009af9" fill-rule="evenodd" fill-opacity="1" stroke="#000000" stroke-opacity="1" stroke-width="3.2"/>
<circle clip-path="url(#clip892)" cx="2081.32" cy="979.571" r="14" fill="#009af9" fill-rule="evenodd" fill-opacity="1" stroke="#000000" stroke-opacity="1" stroke-width="3.2"/>
<circle clip-path="url(#clip892)" cx="1952.52" cy="733.263" r="14" fill="#009af9" fill-rule="evenodd" fill-opacity="1" stroke="#000000" stroke-opacity="1" stroke-width="3.2"/>
<circle clip-path="url(#clip892)" cx="1799.94" cy="487.871" r="14" fill="#009af9" fill-rule="evenodd" fill-opacity="1" stroke="#000000" stroke-opacity="1" stroke-width="3.2"/>
<circle clip-path="url(#clip892)" cx="1628.79" cy="278.602" r="14" fill="#009af9" fill-rule="evenodd" fill-opacity="1" stroke="#000000" stroke-opacity="1" stroke-width="3.2"/>
<circle clip-path="url(#clip892)" cx="1444.89" cy="137.698" r="14" fill="#009af9" fill-rule="evenodd" fill-opacity="1" stroke="#000000" stroke-opacity="1" stroke-width="3.2"/>
<circle clip-path="url(#clip892)" cx="1254.52" cy="87.9763" r="14" fill="#009af9" fill-rule="evenodd" fill-opacity="1" stroke="#000000" stroke-opacity="1" stroke-width="3.2"/>
<circle clip-path="url(#clip892)" cx="1064.14" cy="137.698" r="14" fill="#009af9" fill-rule="evenodd" fill-opacity="1" stroke="#000000" stroke-opacity="1" stroke-width="3.2"/>
<circle clip-path="url(#clip892)" cx="880.241" cy="278.602" r="14" fill="#009af9" fill-rule="evenodd" fill-opacity="1" stroke="#000000" stroke-opacity="1" stroke-width="3.2"/>
<circle clip-path="url(#clip892)" cx="709.091" cy="487.871" r="14" fill="#009af9" fill-rule="evenodd" fill-opacity="1" stroke="#000000" stroke-opacity="1" stroke-width="3.2"/>
<circle clip-path="url(#clip892)" cx="556.515" cy="733.263" r="14" fill="#009af9" fill-rule="evenodd" fill-opacity="1" stroke="#000000" stroke-opacity="1" stroke-width="3.2"/>
<circle clip-path="url(#clip892)" cx="427.708" cy="979.571" r="14" fill="#009af9" fill-rule="evenodd" fill-opacity="1" stroke="#000000" stroke-opacity="1" stroke-width="3.2"/>
<circle clip-path="url(#clip892)" cx="327.058" cy="1194.4" r="14" fill="#009af9" fill-rule="evenodd" fill-opacity="1" stroke="#000000" stroke-opacity="1" stroke-width="3.2"/>
<circle clip-path="url(#clip892)" cx="257.99" cy="1352.03" r="14" fill="#009af9" fill-rule="evenodd" fill-opacity="1" stroke="#000000" stroke-opacity="1" stroke-width="3.2"/>
<circle clip-path="url(#clip892)" cx="222.858" cy="1435.13" r="14" fill="#009af9" fill-rule="evenodd" fill-opacity="1" stroke="#000000" stroke-opacity="1" stroke-width="3.2"/>
<polyline clip-path="url(#clip892)" style="stroke:#e26f46; stroke-width:4; stroke-opacity:1; fill:none" points="
  218.439,1445.72 228.8,1420.94 239.16,1396.33 249.521,1371.89 259.882,1347.61 270.243,1323.5 280.603,1299.56 290.964,1275.79 301.325,1252.21 311.686,1228.8 
  322.046,1205.57 332.407,1182.53 342.768,1159.67 353.129,1137 363.489,1114.52 373.85,1092.23 384.211,1070.14 394.572,1048.25 404.932,1026.55 415.293,1005.06 
  425.654,983.768 436.015,962.683 446.376,941.807 456.736,921.141 467.097,900.686 477.458,880.446 487.819,860.422 498.179,840.616 508.54,821.03 518.901,801.666 
  529.262,782.526 539.622,763.612 549.983,744.926 560.344,726.469 570.705,708.244 581.065,690.253 591.426,672.496 601.787,654.976 612.148,637.695 622.508,620.655 
  632.869,603.856 643.23,587.301 653.591,570.992 663.952,554.929 674.312,539.116 684.673,523.552 695.034,508.241 705.395,493.182 715.755,478.379 726.116,463.832 
  736.477,449.542 746.838,435.512 757.198,421.742 767.559,408.235 777.92,394.99 788.281,382.011 798.641,369.297 809.002,356.85 819.363,344.672 829.724,332.764 
  840.085,321.126 850.445,309.761 860.806,298.669 871.167,287.851 881.528,277.308 891.888,267.042 902.249,257.053 912.61,247.343 922.971,237.912 933.331,228.761 
  943.692,219.892 954.053,211.305 964.414,203.001 974.774,194.981 985.135,187.245 995.496,179.795 1005.86,172.631 1016.22,165.754 1026.58,159.164 1036.94,152.863 
  1047.3,146.851 1057.66,141.128 1068.02,135.695 1078.38,130.552 1088.74,125.701 1099.1,121.141 1109.46,116.874 1119.83,112.899 1130.19,109.216 1140.55,105.827 
  1150.91,102.732 1161.27,99.9301 1171.63,97.4226 1181.99,95.2095 1192.35,93.2911 1202.71,91.6674 1213.07,90.3388 1223.43,89.3053 1233.79,88.567 1244.15,88.124 
  1254.52,87.9763 1264.88,88.124 1275.24,88.567 1285.6,89.3053 1295.96,90.3388 1306.32,91.6674 1316.68,93.2911 1327.04,95.2095 1337.4,97.4226 1347.76,99.9301 
  1358.12,102.732 1368.48,105.827 1378.84,109.216 1389.2,112.899 1399.57,116.874 1409.93,121.141 1420.29,125.701 1430.65,130.552 1441.01,135.695 1451.37,141.128 
  1461.73,146.851 1472.09,152.863 1482.45,159.164 1492.81,165.754 1503.17,172.631 1513.53,179.795 1523.89,187.245 1534.26,194.981 1544.62,203.001 1554.98,211.305 
  1565.34,219.892 1575.7,228.761 1586.06,237.912 1596.42,247.343 1606.78,257.053 1617.14,267.042 1627.5,277.308 1637.86,287.851 1648.22,298.669 1658.58,309.761 
  1668.95,321.126 1679.31,332.764 1689.67,344.672 1700.03,356.85 1710.39,369.297 1720.75,382.011 1731.11,394.99 1741.47,408.235 1751.83,421.742 1762.19,435.512 
  1772.55,449.542 1782.91,463.832 1793.27,478.379 1803.64,493.182 1814,508.241 1824.36,523.552 1834.72,539.116 1845.08,554.929 1855.44,570.992 1865.8,587.301 
  1876.16,603.856 1886.52,620.655 1896.88,637.695 1907.24,654.976 1917.6,672.496 1927.96,690.253 1938.33,708.244 1948.69,726.469 1959.05,744.926 1969.41,763.612 
  1979.77,782.526 1990.13,801.666 2000.49,821.03 2010.85,840.616 2021.21,860.422 2031.57,880.446 2041.93,900.686 2052.29,921.141 2062.65,941.807 2073.02,962.683 
  2083.38,983.768 2093.74,1005.06 2104.1,1026.55 2114.46,1048.25 2124.82,1070.14 2135.18,1092.23 2145.54,1114.52 2155.9,1137 2166.26,1159.67 2176.62,1182.53 
  2186.98,1205.57 2197.34,1228.8 2207.71,1252.21 2218.07,1275.79 2228.43,1299.56 2238.79,1323.5 2249.15,1347.61 2259.51,1371.89 2269.87,1396.33 2280.23,1420.94 
  2290.59,1445.72 
  "/>
<path clip-path="url(#clip890)" d="
M1983.06 276.658 L2279.54 276.658 L2279.54 95.2176 L1983.06 95.2176  Z
  " fill="#ffffff" fill-rule="evenodd" fill-opacity="1"/>
<polyline clip-path="url(#clip890)" style="stroke:#000000; stroke-width:4; stroke-opacity:1; fill:none" points="
  1983.06,276.658 2279.54,276.658 2279.54,95.2176 1983.06,95.2176 1983.06,276.658 
  "/>
<circle clip-path="url(#clip890)" cx="2080.68" cy="155.698" r="23" fill="#009af9" fill-rule="evenodd" fill-opacity="1" stroke="#000000" stroke-opacity="1" stroke-width="5.12"/>
<path clip-path="url(#clip890)" d="M 0 0 M2192.14 175.385 Q2190.34 180.015 2188.62 181.427 Q2186.91 182.839 2184.04 182.839 L2180.64 182.839 L2180.64 179.274 L2183.14 179.274 Q2184.9 179.274 2185.87 178.44 Q2186.84 177.607 2188.02 174.505 L2188.78 172.561 L2178.3 147.052 L2182.81 147.052 L2190.91 167.329 L2199.02 147.052 L2203.53 147.052 L2192.14 175.385 Z" fill="#000000" fill-rule="evenodd" fill-opacity="1" /><path clip-path="url(#clip890)" d="M 0 0 M2210.82 169.042 L2218.46 169.042 L2218.46 142.677 L2210.15 144.343 L2210.15 140.084 L2218.41 138.418 L2223.09 138.418 L2223.09 169.042 L2230.73 169.042 L2230.73 172.978 L2210.82 172.978 L2210.82 169.042 Z" fill="#000000" fill-rule="evenodd" fill-opacity="1" /><polyline clip-path="url(#clip890)" style="stroke:#e26f46; stroke-width:4; stroke-opacity:1; fill:none" points="
  2007.46,216.178 2153.89,216.178 
  "/>
<path clip-path="url(#clip890)" d="M 0 0 M2192.14 235.865 Q2190.34 240.495 2188.62 241.907 Q2186.91 243.319 2184.04 243.319 L2180.64 243.319 L2180.64 239.754 L2183.14 239.754 Q2184.9 239.754 2185.87 238.92 Q2186.84 238.087 2188.02 234.985 L2188.78 233.041 L2178.3 207.532 L2182.81 207.532 L2190.91 227.809 L2199.02 207.532 L2203.53 207.532 L2192.14 235.865 Z" fill="#000000" fill-rule="evenodd" fill-opacity="1" /><path clip-path="url(#clip890)" d="M 0 0 M2214.04 229.522 L2230.36 229.522 L2230.36 233.458 L2208.41 233.458 L2208.41 229.522 Q2211.08 226.768 2215.66 222.138 Q2220.27 217.485 2221.45 216.143 Q2223.69 213.62 2224.57 211.884 Q2225.47 210.124 2225.47 208.435 Q2225.47 205.68 2223.53 203.944 Q2221.61 202.208 2218.51 202.208 Q2216.31 202.208 2213.85 202.972 Q2211.42 203.735 2208.65 205.286 L2208.65 200.564 Q2211.47 199.43 2213.92 198.851 Q2216.38 198.273 2218.41 198.273 Q2223.78 198.273 2226.98 200.958 Q2230.17 203.643 2230.17 208.134 Q2230.17 210.263 2229.36 212.185 Q2228.58 214.083 2226.47 216.675 Q2225.89 217.347 2222.79 220.564 Q2219.69 223.759 2214.04 229.522 Z" fill="#000000" fill-rule="evenodd" fill-opacity="1" /></svg>
